<svg width="14" height="14" viewBox="0 0 14 14" fill="none" xmlns="http://www.w3.org/2000/svg">
<path fill-rule="evenodd" clip-rule="evenodd" d="M7.83333 11.4167C8.41667 11.8333 9.16667 11.5 9.16667 10.75V7L6.08333 10.0833L7.83333 11.4167Z" fill="white"/>
<path fill-rule="evenodd" clip-rule="evenodd" d="M13.0833 0.25C12.75 -0.0833333 12.25 -0.0833333 11.9167 0.25L9.16667 3V0.916666C9.16667 0.25 8.33333 -0.166667 7.83333 0.25L5.5 2.16667C5.16667 2.33333 4.83333 2.5 4.41667 2.5H2.5C1.58333 2.5 0.833333 3.25 0.833333 4.16667V7.5C0.833333 8.41667 1.58333 9.16667 2.5 9.16667H3L0.25 11.9167C-0.0833333 12.25 -0.0833333 12.75 0.25 13.0833C0.583333 13.4167 1.08333 13.4167 1.41667 13.0833L13.0833 1.41667C13.4167 1.08333 13.4167 0.583333 13.0833 0.25Z" fill="white"/>
</svg>
