<svg width="46" height="52" viewBox="0 0 46 52" fill="none" xmlns="http://www.w3.org/2000/svg">
<path d="M39.6094 4.57031C39.6094 2.05029 37.5591 0 35.0391 0H4.57031C2.05029 0 0 2.05029 0 4.57031V13.7109C0 16.231 2.05029 18.2813 4.57031 18.2813H35.0391C37.5591 18.2813 39.6094 16.231 39.6094 13.7109V12.1875H41.1328C41.9727 12.1875 42.6563 12.8711 42.6563 13.7109V19.8047C42.6563 20.6446 41.9727 21.3281 41.1328 21.3281H22.8516C20.3315 21.3281 18.2813 23.3784 18.2813 25.8984V30.4688H16.7578C15.9164 30.4688 15.2344 31.1507 15.2344 31.9922V38.003L13.7109 44.1952C12.7203 48.1573 15.714 52 19.8047 52C23.8973 52 26.8879 48.1533 25.9 44.2007L24.375 38.003V31.9922C24.375 31.1507 23.693 30.4688 22.8516 30.4688H21.3281V25.8984C21.3281 25.0586 22.0117 24.375 22.8516 24.375H41.1328C43.6528 24.375 45.7031 22.3247 45.7031 19.8047V13.7109C45.7031 11.1909 43.6528 9.14063 41.1328 9.14063H39.6094V4.57031ZM21.3281 33.5156V36.6641H18.2813V33.5156H21.3281ZM19.8047 48.9531C17.706 48.9531 16.1544 46.9834 16.6682 44.9287L17.952 39.7109H21.6574L22.9424 44.9343C23.4526 46.9746 21.9109 48.9531 19.8047 48.9531ZM4.57031 3.04688H35.0391C35.8789 3.04688 36.5625 3.73044 36.5625 4.57031V6.09375H31.9922C30.5116 6.09375 28.6184 6.64838 26.4261 7.29028C23.4649 8.15753 20.109 9.14063 16.7578 9.14063C13.4912 9.14063 11.1881 8.18649 9.1561 7.34503C7.60251 6.70154 6.13541 6.09375 4.57031 6.09375H3.04688V4.57031C3.04688 3.73044 3.73044 3.04688 4.57031 3.04688ZM36.5625 13.7109C36.5625 14.5508 35.8789 15.2344 35.0391 15.2344H4.57031C3.73044 15.2344 3.04688 14.5508 3.04688 13.7109V9.14063H4.57031C5.52921 9.14063 6.61545 9.59052 7.99011 10.1598C10.1709 11.0632 12.8849 12.1875 16.7578 12.1875C20.5462 12.1875 24.281 11.0933 27.2826 10.2146C29.1679 9.66232 30.9488 9.14063 31.9922 9.14063H36.5625V13.7109Z" fill="#FF5A30"/>
</svg>
